<svg xmlns="http://www.w3.org/2000/svg" viewBox="0 0 57 57"><g transform="translate(133.5 161.5)"><path d="M-84-105.5H-98a21.365,21.365,0,0,1-8.368-1.689A21.429,21.429,0,0,1-113.2-111.8a21.429,21.429,0,0,1-4.608-6.834A21.365,21.365,0,0,1-119.5-127v-14a21.365,21.365,0,0,1,1.689-8.368A21.429,21.429,0,0,1-113.2-156.2a21.429,21.429,0,0,1,6.834-4.608A21.364,21.364,0,0,1-98-162.5h14a21.364,21.364,0,0,1,8.368,1.689A21.429,21.429,0,0,1-68.8-156.2a21.429,21.429,0,0,1,4.608,6.834A21.365,21.365,0,0,1-62.5-141v14a21.365,21.365,0,0,1-1.689,8.368A21.429,21.429,0,0,1-68.8-111.8a21.429,21.429,0,0,1-6.834,4.608A21.365,21.365,0,0,1-84-105.5Zm-15-43a7.508,7.508,0,0,0-7.5,7.5,7.509,7.509,0,0,0,7.5,7.5,7.509,7.509,0,0,0,7.5-7.5A7.508,7.508,0,0,0-99-148.5Z" transform="translate(-14 1)"/></g></svg>